<svg width="192" height="228" viewBox="0 0 192 228" fill="none" xmlns="http://www.w3.org/2000/svg">
<path d="M26 38H71V221C71 224.866 67.866 228 64 228H33C29.134 228 26 224.866 26 221V38Z" fill="#003D58"/>
<rect width="19" height="132.544" rx="9.5" transform="matrix(-0.717782 0.696267 0.696267 0.717782 62.8215 43.7262)" fill="#ED1D24"/>
<rect width="19" height="127.543" rx="9.5" transform="matrix(-0.999884 -0.0152134 -0.0152134 0.999884 33.9132 60.5457)" fill="#0092C8"/>
<rect x="63.3705" y="36.0588" width="19.3245" height="127.543" rx="9.66224" transform="rotate(-89.1283 63.3705 36.0588)" fill="#FEDA00"/>
<circle cx="35.4841" cy="35.4841" r="32.3532" transform="matrix(-0.717782 0.696267 0.696267 0.717782 50.9398 0)" fill="#003D58" stroke="white" stroke-width="6.2619"/>
<g clip-path="url(#clip0_19_1369)">
<mask id="mask0_19_1369" style="mask-type:luminance" maskUnits="userSpaceOnUse" x="-167" y="-108" width="340" height="243">
<path d="M-166.141 -107.735H172.819V134.553H-166.141V-107.735Z" fill="white"/>
</mask>
<g mask="url(#mask0_19_1369)">
<path d="M16.1199 49.9752C16.1199 40.8328 19.6932 32.5232 25.4929 26.3805L72.9523 75.0344C72.7647 75.2106 72.5767 75.3873 72.3846 75.5594C72.2908 75.6437 72.1946 75.7259 72.1 75.8089C71.6696 76.187 71.2291 76.5534 70.7802 76.9091C70.6626 77.0019 70.5475 77.0971 70.4287 77.1883C70.2089 77.358 69.985 77.5225 69.7612 77.6865C69.5977 77.8062 69.4334 77.9246 69.2679 78.0414C69.053 78.1932 68.8375 78.3442 68.6189 78.4912C68.4043 78.6352 68.1861 78.774 67.9683 78.9132C67.6643 79.1074 67.3571 79.2966 67.0467 79.4814C66.8051 79.6247 66.5636 79.7676 66.3184 79.9051C66.1251 80.0134 65.9302 80.1188 65.7346 80.2234C65.4862 80.3565 65.2357 80.4859 64.9837 80.6129C64.8045 80.7029 64.6266 80.7945 64.4458 80.8812C64.0367 81.0781 63.6244 81.2682 63.2065 81.4485C63.0692 81.508 62.9295 81.5621 62.7914 81.6199C62.4709 81.753 62.1484 81.8828 61.8235 82.0061C61.6556 82.07 61.4873 82.1319 61.3187 82.193C60.9813 82.3151 60.6419 82.4311 60.2996 82.5422C60.17 82.5845 60.0411 82.6297 59.9107 82.6704C59.4473 82.8149 58.9794 82.9492 58.508 83.0737C58.384 83.1067 58.2583 83.1356 58.1339 83.167C57.7619 83.2606 57.3883 83.3485 57.0118 83.4295C56.8625 83.4616 56.7131 83.4934 56.5633 83.5235C56.1345 83.6094 55.7033 83.6879 55.2693 83.7575C55.2009 83.7685 55.1332 83.782 55.0648 83.7925C54.5611 83.8699 54.0534 83.9342 53.5429 83.9887C53.4144 84.0026 53.2852 84.0131 53.1568 84.0254C52.7562 84.0632 52.3536 84.0945 51.9489 84.1186C51.8092 84.1267 51.6699 84.1357 51.5298 84.1422C51.0084 84.1662 50.485 84.1825 49.9576 84.1825C31.2994 84.1825 16.1199 68.8372 16.1199 49.9752ZM78.9054 76.5155C78.5294 76.5155 78.1714 76.59 77.8417 76.7206L76.2256 75.0873C76.2292 75.0836 76.2328 75.0796 76.2361 75.0755C82.3651 68.5217 86.1292 59.685 86.1292 49.9756H83.7952C83.7952 54.9893 82.7138 59.7493 80.7889 64.0441C80.1306 65.5118 79.3733 66.9246 78.5249 68.2738C78.5145 68.2905 78.5036 68.3076 78.4927 68.3243C77.8679 69.3146 77.1935 70.2703 76.474 71.1881C76.4511 71.217 76.4285 71.2467 76.4056 71.2756C76.1753 71.5674 75.9401 71.8552 75.701 72.1393C75.6656 72.1812 75.6289 72.2227 75.5935 72.2646C75.2617 72.6541 74.9195 73.0335 74.5712 73.4075L27.1186 24.7606C33.1422 19.18 41.1624 15.768 49.9576 15.768L49.958 13.4089C40.5254 13.4089 31.9283 17.0823 25.482 23.0829L23.7946 21.3531C23.8792 21.0787 23.9271 20.7885 23.9271 20.4861C23.9271 18.8577 22.6214 17.5373 21.0101 17.5373C19.3992 17.5373 18.0932 18.8577 18.0932 20.4861C18.0932 22.115 19.3992 23.4354 21.0101 23.4354C21.3862 23.4354 21.7441 23.3609 22.0742 23.2298L23.69 24.8636C17.5549 31.4186 13.7863 40.2602 13.7863 49.9752C13.7863 70.138 30.0127 86.5419 49.9576 86.5419C50.5273 86.5419 51.0938 86.5269 51.6566 86.5004C51.69 86.4988 51.7239 86.498 51.7573 86.4963C52.2988 86.4695 52.8367 86.4288 53.3718 86.3779C53.4245 86.3726 53.4777 86.3689 53.5308 86.3637C54.0526 86.3116 54.5708 86.2468 55.0857 86.1728C55.1489 86.1634 55.2121 86.1553 55.2749 86.1459C55.7835 86.0698 56.2879 85.9823 56.7888 85.885C56.8552 85.872 56.9217 85.8594 56.9877 85.8463C57.4865 85.7466 57.9818 85.6359 58.4729 85.5158C58.5378 85.5 58.6022 85.4841 58.6666 85.4678C59.1602 85.3441 59.6498 85.2102 60.1354 85.0657C60.1921 85.049 60.2485 85.0319 60.3053 85.0148C60.7981 84.8658 61.2864 84.7071 61.77 84.5378C61.8139 84.5223 61.8578 84.506 61.9016 84.4906C62.3973 84.3147 62.8881 84.1295 63.3736 83.9326C63.399 83.9224 63.4243 83.9114 63.4501 83.9012C63.953 83.6961 64.4506 83.4804 64.9422 83.2532C64.9426 83.2532 64.943 83.2532 64.943 83.2532C67.4791 82.0814 69.8582 80.6211 72.0404 78.9153C72.0428 78.9132 72.0456 78.9112 72.048 78.9096C72.4808 78.5709 72.9056 78.2225 73.3223 77.8652C73.3276 77.8607 73.3328 77.8562 73.338 77.8517C73.7535 77.4952 74.161 77.1293 74.56 76.754C74.5628 76.752 74.5652 76.7495 74.5676 76.7475L76.1914 78.389C76.0621 78.7223 75.9885 79.0846 75.9885 79.4643C75.9885 81.0928 77.2945 82.4132 78.9054 82.4132C80.5163 82.4132 81.8224 81.0928 81.8224 79.4643C81.8224 77.8359 80.5163 76.5155 78.9054 76.5155Z" fill="#003D58"/>
</g>
<mask id="mask1_19_1369" style="mask-type:luminance" maskUnits="userSpaceOnUse" x="-167" y="-108" width="340" height="243">
<path d="M-166.141 -107.735H172.819V134.553H-166.141V-107.735Z" fill="white"/>
</mask>
<g mask="url(#mask1_19_1369)">
<path d="M140.149 49.802H83.7801L83.7986 51.9217H140.149V49.802Z" fill="#003D58"/>
<path d="M48.0159 49.9753H55.6113V79.3842C53.779 79.7424 51.8883 79.9362 49.9521 79.9362C49.3007 79.9362 48.6565 79.9073 48.0159 79.8657V59.0086V49.9753Z" fill="#ED1D24"/>
<path d="M60.2282 40.7914V21.8668C71.5309 26.0912 79.5893 37.081 79.5893 49.9753C79.5893 59.7359 74.97 68.4033 67.8236 73.8736V40.7914H60.2282Z" fill="#0092C8"/>
<path d="M37.8886 22.6099V59.0089V77.3409C27.5349 72.6687 20.3148 62.1779 20.3148 49.9752C20.3148 37.7729 27.5349 27.2816 37.8886 22.6099Z" fill="#0092C8"/>
<path d="M55.6114 40.7913V49.9753H48.016V20.0852C48.6565 20.0433 49.3007 20.0144 49.9522 20.0144C53.5653 20.0144 57.0266 20.6701 60.2282 21.8667V40.7913H55.6114Z" fill="#003D58"/>
<path d="M48.0159 59.0087V79.8654C44.4282 79.6314 41.0164 78.7519 37.8884 77.3407V59.0087H48.0159Z" fill="white"/>
<path d="M48.0159 49.9753V59.0086H37.8884V22.61C41.0164 21.1985 44.4282 20.3194 48.0159 20.0849V49.9753Z" fill="#FEDA00"/>
<path d="M55.6114 40.7913H60.2282H67.8236V73.8736C64.2878 76.5798 60.1328 78.4997 55.6114 79.3842V49.9752V40.7913Z" fill="white"/>
</g>
</g>
<defs>
<clipPath id="clip0_19_1369">
<rect width="80" height="85" fill="white" transform="translate(6 7)"/>
</clipPath>
</defs>
</svg>
